Another Fine Release Brought to you from - ZOMBiES                  
                                               

*******************************************************************************

Treasure Buddies 2012 BRRip XviD - ZOMBiES                                      

*******************************************************************************


Release Name : Treasure Buddies 2012 BRRip XviD - ZOMBiES
Rating : 9.0/10
Genre : Comedy, Family
Stars : Richard Riehle, Edward Herrmann, Mason Cook, Adam Alexi-Malle
Director : Robert Vince
Writers : Anna McRoberts, Robert Vince
Release Date : 31 Jan 2012
Movie Runtime : N/A
Rated Under : G
Movie Plot : N/A
 
http://www.imdb.com/title/tt1791658/

Format                           : AVI
Format/Info                      : Audio Video Interleave
File size                        : 632 MiB
Duration                         : 1h 32mn
Overall bit rate mode            : Variable
Overall bit rate                 : 952 Kbps
Writing application              : MEncoder SVN-r33823-4.1.2
Writing library                  : MPlayer

Video
ID                               : 0
Format                           : xvid
Codec ID                         : xvid
Duration                         : 1h 32mn
Bit rate                         : 752 Kbps
Width                            : 624 pixels
Height                           : 336 pixels
Display aspect ratio             : 1.857
Frame rate                       : 23.976 fps
Bits/(Pixel*Frame)               : 0.150
Stream size                      : 500 MiB (79%)

Audio
ID                               : 1
Format                           : MPEG Audio
Format version                   : Version 1
Format profile                   : Layer 3
Mode                             : Joint stereo
Mode extension                   : MS Stereo
Codec ID                         : 55
Codec ID/Hint                    : MP3
Duration                         : 1h 32mn
Bit rate mode                    : Variable
Bit rate                         : 188 Kbps
Channel(s)                       : 2 channels
Sampling rate                    : 44.1 KHz
Compression mode                 : Lossy
Stream size                      : 125 MiB (20%)
Alignment                        : Aligned on interleaves
Interleave, duration             : 26 ms (0.63 video frame)
Interleave, preload duration     : 88 ms
Writing library                  : LAME3.98.4

GREETS:

FLAWL3SS,ViSiON,Rx,ELEKTRI4KA,26K,DTRG,3LT0N,RemixHD
And to all the other p2p grps past and present .

Looking for these,syncers,cammers,audio,silver supplier.....Have anything to offer????......
You know how to find us .


Poster:

 
http://i.imgur.com/SWL1P.jpg


Screens:

 
http://i.imgur.com/d8enR.jpg

 
http://i.imgur.com/Kx6P4.jpg

 
http://i.imgur.com/nU1Oa.jpg



ENJOY!